Coordinates
version=1
nRows=32
nColumns=12
inDegrees=yes

Units are S.I. units (second, meters, Newtons, ...)
Angles are in degrees

endheader
time	SC_y	SC_z	SC_x	AC_y	AC_z	AC_x	GH_y	GH_z	GH_yy	EL_x	PS_y
       0.0              -13.14          13.73          65.95          53.59          0.788          6.772         -166.7          28.71          153.2          114.6          139.2
  0.005258              -13.15          13.73          65.95          53.59         0.7891          6.768         -166.6          28.71          153.1          114.6          139.2
   0.01052              -13.16          13.73          65.94           53.6         0.7902          6.765         -166.6          28.71          153.1          114.6          139.2
   0.01577              -13.16          13.72          65.94           53.6         0.7914          6.761         -166.6           28.7          153.1          114.6          139.2
   0.02103              -13.17          13.72          65.93           53.6         0.7927          6.756         -166.5           28.7          153.1          114.6          139.2
   0.02629              -13.18          13.72          65.93           53.6         0.7941          6.752         -166.5           28.7          153.0          114.5          139.2
   0.03155              -13.18          13.71          65.92           53.6         0.7956          6.747         -166.5          28.69          153.0          114.5          139.1
    0.0368              -13.19          13.71          65.91           53.6         0.7972          6.742         -166.4          28.69          153.0          114.5          139.1
   0.04206               -13.2          13.71           65.9           53.6         0.7989          6.737         -166.4          28.69          152.9          114.5          139.1
   0.04732              -13.21           13.7           65.9          53.61         0.8007          6.731         -166.4          28.68          152.9          114.5          139.1
   0.05258              -13.22           13.7          65.89          53.61         0.8026          6.725         -166.3          28.68          152.8          114.4          139.1
   0.05783              -13.24          13.69          65.88          53.61         0.8047          6.718         -166.3          28.67          152.8          114.4          139.0
   0.06309              -13.25          13.69          65.87          53.61          0.807          6.711         -166.2          28.67          152.8          114.4          139.0
   0.06835              -13.26          13.68          65.86          53.61         0.8094          6.703         -166.2          28.66          152.7          114.3          139.0
   0.07361              -13.28          13.68          65.85          53.62         0.8121          6.695         -166.1          28.66          152.6          114.3          139.0
   0.07887              -13.29          13.67          65.83          53.62         0.8149          6.685         -166.0          28.65          152.6          114.3          138.9
   0.08412              -13.31          13.66          65.82          53.62         0.8181          6.675         -166.0          28.64          152.5          114.2          138.9
   0.08938              -13.33          13.65          65.81          53.63         0.8215          6.665         -165.9          28.63          152.4          114.2          138.8
   0.09464              -13.35          13.65          65.79          53.63         0.8252          6.653         -165.8          28.62          152.4          114.1          138.8
    0.0999              -13.37          13.64          65.77          53.63         0.8292           6.64         -165.7          28.61          152.3          114.1          138.8
    0.1052               -13.4          13.63          65.75          53.64         0.8337          6.625         -165.6           28.6          152.2          114.0          138.7
    0.1104              -13.42          13.61          65.73          53.64         0.8386           6.61         -165.5          28.59          152.1          114.0          138.6
    0.1157              -13.45           13.6          65.71          53.65          0.844          6.592         -165.4          28.58          152.0          113.9          138.6
    0.1209              -13.49          13.59          65.68          53.65           0.85          6.573         -165.3          28.56          151.8          113.8          138.5
    0.1262              -13.52          13.57          65.65          53.66         0.8567          6.552         -165.1          28.55          151.7          113.7          138.4
    0.1314              -13.57          13.55          65.62          53.67         0.8641          6.528         -164.9          28.53          151.5          113.6          138.4
    0.1367              -13.61          13.54          65.59          53.68         0.8725          6.501         -164.7          28.51          151.3          113.5          138.3
     0.142              -13.66          13.51          65.54          53.68         0.8819          6.471         -164.5          28.49          151.1          113.4          138.1
    0.1472              -13.72          13.49           65.5          53.69         0.8925          6.437         -164.3          28.46          150.9          113.3          138.0
    0.1525              -13.79          13.46          65.45          53.71         0.9045          6.399         -164.0          28.43          150.7          113.1          137.9
    0.1577              -13.87          13.43          65.39          53.72         0.9182          6.355         -163.7           28.4          150.4          112.9          137.7
     0.163              -13.95          13.39          65.32          53.73          0.934          6.304         -163.4          28.36          150.0          112.7          137.5
